<svg width="26" height="17" viewBox="0 0 26 17" fill="none" xmlns="http://www.w3.org/2000/svg">
<path d="M26 8.05565C26 12.5048 22.4001 16.1114 17.9595 16.1114C13.5189 16.1114 9.91907 12.5048 9.91907 8.05565C9.91907 3.60664 13.5189 0 17.9595 0C22.4001 0 26 3.60664 26 8.05565Z" fill="#F79F1A"/>
<path d="M16.0809 8.05565C16.0809 12.5048 12.4811 16.1114 8.04044 16.1114C3.59983 16.1114 0 12.5048 0 8.05565C0 3.60664 3.59983 0 8.04044 0C12.4811 0 16.0809 3.60664 16.0809 8.05565Z" fill="#EA001B"/>
<path d="M13.0002 1.71436C11.1242 3.18908 9.91994 5.48078 9.91994 8.05516C9.91994 10.6295 11.1242 12.9229 13.0002 14.3976C14.8762 12.9229 16.0805 10.6295 16.0805 8.05516C16.0805 5.48078 14.8762 3.18908 13.0002 1.71436Z" fill="#FF5F01"/>
</svg>
